<svg width="40" height="35" viewBox="0 0 40 35" fill="none" xmlns="http://www.w3.org/2000/svg">
<path d="M2.85714 7H37.1429C38.72 7 40 5.432 40 3.5C40 1.568 38.72 0 37.1429 0H2.85714C1.28 0 0 1.568 0 3.5C0 5.432 1.28 7 2.85714 7ZM37.1429 14H2.85714C1.28 14 0 15.568 0 17.5C0 19.432 1.28 21 2.85714 21H37.1429C38.72 21 40 19.432 40 17.5C40 15.568 38.72 14 37.1429 14ZM37.1429 28H2.85714C1.28 28 0 29.568 0 31.5C0 33.432 1.28 35 2.85714 35H37.1429C38.72 35 40 33.432 40 31.5C40 29.568 38.72 28 37.1429 28Z" fill="white"/>
</svg>
