<svg width="50" height="50" viewBox="0 0 50 50" fill="none" xmlns="http://www.w3.org/2000/svg">
<path fill-rule="evenodd" clip-rule="evenodd" d="M45.1172 0H4.88281C2.18611 0 0 2.18611 0 4.88281V45.1172C0 47.8139 2.18611 50 4.88281 50H45.1172C47.8139 50 50 47.8139 50 45.1172V4.88281C50 2.18611 47.8139 0 45.1172 0ZM22.7539 27.7344H29.0039V23.7305H11.5234V27.7344H17.7734V45.6055H22.7539V27.7344ZM30.957 44.6289V39.9399C31.7873 40.5983 32.702 41.104 33.7012 41.4492C34.6777 41.8203 35.752 42.0059 36.8262 42.0059C37.5098 42.0059 38.0273 41.9473 38.4863 41.8398C38.9648 41.7227 39.3457 41.5664 39.6582 41.3711C39.9707 41.1758 40.2031 40.9414 40.3516 40.668C40.5 40.3945 40.5762 40.1016 40.5762 39.7891C40.5762 39.3398 40.4492 38.9492 40.2051 38.6172C39.9805 38.2852 39.6484 37.9727 39.2285 37.6895C38.8379 37.4062 38.3496 37.1328 37.7637 36.8691C37.6863 36.8343 37.6088 36.7994 37.531 36.7643C37.0191 36.5333 36.4931 36.2959 35.9082 36.0586C34.248 35.2773 32.9395 34.4961 32.0996 33.4219C31.25 32.4453 30.8301 31.1758 30.8301 29.7109C30.8301 28.5391 31.0547 27.6016 31.5137 26.7812C32.002 25.9023 32.5781 25.2578 33.3691 24.7305C34.1504 24.1934 35.0293 23.8027 36.1035 23.5586C37.1777 23.3145 38.252 23.1875 39.4238 23.1875C40.5957 23.1875 41.5723 23.2559 42.4512 23.3926C43.3301 23.5293 44.1504 23.7441 44.8926 24.0273V28.6172C44.5508 28.3633 44.1504 28.1387 43.7207 27.9434C43.2617 27.748 42.8125 27.5918 42.3535 27.4648C41.8945 27.3379 41.4355 27.2432 40.9863 27.1816C40.5566 27.1201 40.127 27.0898 39.7168 27.0898C39.1211 27.0898 38.6133 27.1387 38.1543 27.2461C37.6855 27.3535 37.2949 27.5 36.9824 27.6953C36.6699 27.8906 36.4268 28.1152 36.25 28.3887C36.0732 28.6621 35.9863 28.9648 35.9863 29.2969C35.9863 29.6582 36.084 29.9805 36.2793 30.2734C36.4746 30.5566 36.748 30.8301 37.1094 31.0938C37.4316 31.3477 37.8711 31.6016 38.3789 31.8555C38.6017 31.952 38.816 32.0486 39.0315 32.1456C39.3828 32.3039 39.7373 32.4635 40.1367 32.627C41.0156 32.998 41.7969 33.4082 42.4805 33.7988C43.1641 34.1895 43.7402 34.6484 44.2383 35.166C44.7656 35.6543 45.1465 36.2402 45.4102 36.9238C45.6738 37.6074 45.8105 38.3789 45.8105 39.2676C45.8105 40.5371 45.5078 41.5137 45.1172 42.3926C44.7266 43.2715 44.0527 43.9258 43.2617 44.4434C42.4805 44.9219 41.6016 45.293 40.5273 45.5176C39.4531 45.7422 38.3789 45.8496 37.207 45.8496C36.0352 45.8496 34.8633 45.752 33.7891 45.5469C32.7148 45.3418 31.748 45.0391 30.957 44.6289Z" fill="white"/>
</svg>
