<svg width="50" height="50" viewBox="0 0 50 50" fill="none" xmlns="http://www.w3.org/2000/svg">
<path fill-rule="evenodd" clip-rule="evenodd" d="M50 5C50 2.23858 47.7614 0 45 0H5C2.23858 0 0 2.23858 0 5V45C0 47.7614 2.23858 50 5 50H45C47.7614 50 50 47.7614 50 45V5ZM14.9492 40.7052C16.0657 40.0293 17.3709 40.5739 18.4057 41.3692C18.8255 41.6919 19.3366 41.8865 20.0135 41.8865C21.5571 41.8865 22.531 41.2825 22.531 38.9341V25.3071C22.531 24.0097 23.5827 22.9579 24.8802 22.9579C26.1776 22.9579 27.2294 24.0097 27.2294 25.3071V38.9976C27.2294 43.8627 24.377 46.077 20.2135 46.077C17.4499 46.077 15.5407 45.0263 14.2828 43.539C13.5176 42.6342 13.9355 41.3189 14.9492 40.7052ZM38.2222 41.9159C36.8421 41.9159 35.8192 41.4872 35.0047 40.7931C34.0543 39.983 32.725 39.5637 31.6452 40.191C30.5919 40.8029 30.1751 42.16 30.9795 43.0746C32.5567 44.8679 34.9916 46.0857 38.331 46.0857C42.7937 46.0857 46.1167 43.7683 46.1167 39.5381C46.1167 35.6143 43.8627 33.8691 39.8706 32.1571L38.696 31.654C36.6802 30.781 35.8071 30.2103 35.8071 28.8008C35.8071 27.6603 36.6794 26.7873 38.0556 26.7873C38.6316 26.7873 39.1201 26.891 39.5535 27.1223C40.6532 27.7092 41.9658 28.2316 43.0147 27.5582C43.9811 26.9376 44.325 25.6339 43.5387 24.7967C42.1298 23.2965 40.3377 22.6897 38.0556 22.6897C33.8595 22.6897 31.1746 25.3722 31.1746 28.896C31.1746 32.7214 33.427 34.531 36.8175 35.9754L37.9921 36.4794C40.1349 37.4167 41.4127 37.9873 41.4127 39.5984C41.4127 40.9429 40.169 41.9159 38.2222 41.9159Z" fill="white"/>
</svg>
