<svg width="26" height="25" viewBox="0 0 26 25" fill="none" xmlns="http://www.w3.org/2000/svg">
<path d="M20.1429 15.1042V20.3125C20.1429 21.6037 19.7499 22.7078 18.964 23.6247C18.1781 24.5416 17.2318 25 16.125 25H4.51786C3.41109 25 2.46475 24.5416 1.67885 23.6247C0.89295 22.7078 0.5 21.6037 0.5 20.3125V6.77083C0.5 5.4796 0.89295 4.37554 1.67885 3.45866C2.46475 2.54178 3.41109 2.08333 4.51786 2.08333H14.3393C14.4695 2.08333 14.5765 2.13216 14.6602 2.22982C14.7439 2.32747 14.7857 2.45226 14.7857 2.60417V3.64583C14.7857 3.79774 14.7439 3.92253 14.6602 4.02018C14.5765 4.11784 14.4695 4.16667 14.3393 4.16667H4.51786C3.90402 4.16667 3.37853 4.42166 2.94141 4.93164C2.50428 5.44162 2.28571 6.05469 2.28571 6.77083V20.3125C2.28571 21.0286 2.50428 21.6417 2.94141 22.1517C3.37853 22.6617 3.90402 22.9167 4.51786 22.9167H16.125C16.7388 22.9167 17.2643 22.6617 17.7015 22.1517C18.1386 21.6417 18.3571 21.0286 18.3571 20.3125V15.1042C18.3571 14.9523 18.399 14.8275 18.4827 14.7298C18.5664 14.6322 18.6734 14.5833 18.8036 14.5833H19.6964C19.8266 14.5833 19.9336 14.6322 20.0173 14.7298C20.101 14.8275 20.1429 14.9523 20.1429 15.1042ZM25.5 1.04167V9.375C25.5 9.65712 25.4116 9.90126 25.2349 10.1074C25.0582 10.3136 24.849 10.4167 24.6071 10.4167C24.3653 10.4167 24.1561 10.3136 23.9794 10.1074L21.524 7.24284L12.428 17.8548C12.335 17.9633 12.2281 18.0176 12.1071 18.0176C11.9862 18.0176 11.8793 17.9633 11.7863 17.8548L10.1959 15.9993C10.1029 15.8908 10.0564 15.7661 10.0564 15.625C10.0564 15.4839 10.1029 15.3592 10.1959 15.2507L19.2919 4.63867L16.8365 1.77409C16.6598 1.56793 16.5714 1.32378 16.5714 1.04167C16.5714 0.759549 16.6598 0.515408 16.8365 0.309245C17.0132 0.103082 17.2225 0 17.4643 0H24.6071C24.849 0 25.0582 0.103082 25.2349 0.309245C25.4116 0.515408 25.5 0.759549 25.5 1.04167Z" fill="#0066AF"/>
</svg>
