<svg width="44" height="50" viewBox="0 0 44 50" fill="none" xmlns="http://www.w3.org/2000/svg">
<path d="M20.7561 26.8428C20.7561 26.8428 17.4299 21.4785 17.5549 17.5492C17.6445 14.7517 25.1835 11.9758 28.1479 7.95245C31.112 3.91847 27.786 0 27.786 0C27.786 0 28.5223 2.89133 26.5471 5.88717C24.5847 8.87249 17.3052 10.6346 14.4687 15.7978C11.642 20.9636 20.7561 26.8428 20.7561 26.8428Z" fill="white"/>
<path d="M33.212 10.5299C33.212 10.5299 21.8701 14.1428 21.8701 18.2706C21.8701 22.4093 24.9464 23.7502 25.4459 25.0912C25.9356 26.4324 24.5847 28.7069 24.5847 28.7069C24.5847 28.7069 29.0216 26.1185 28.2726 23.1334C27.5363 20.1374 24.0821 19.2039 26.0603 16.2081C27.3857 14.2072 33.212 10.5299 33.212 10.5299Z" fill="white"/>
<path d="M19.5331 32.301C30.0108 31.9873 33.8234 29.2192 33.8234 29.2192C27.0465 30.7695 9.05211 30.6649 8.92737 29.5331C8.80244 28.3932 14.4687 27.4597 14.4687 27.4597C14.4687 27.4597 5.60118 27.4597 4.86493 29.3237C4.12558 31.1798 9.05211 32.6148 19.5331 32.301Z" fill="white"/>
<path d="M34.6878 36.6595C34.6878 36.6595 44.9416 34.8249 43.9298 30.1527C42.7036 24.4745 35.549 27.6797 35.549 27.6797C35.549 27.6797 40.6038 27.6797 41.0904 30.2572C41.5897 32.8347 34.6878 36.6595 34.6878 36.6595Z" fill="white"/>
<path d="M29.6362 34.1758C29.6362 34.1758 27.0465 34.7524 23.2209 35.1091C18.0926 35.5893 11.879 35.2138 11.3924 34.4897C10.9025 33.7681 12.2534 33.347 12.2534 33.347C6.08777 34.5942 9.46513 36.7535 16.6808 37.1718C22.8815 37.5285 32.0979 35.6215 32.0979 35.6215L29.6362 34.1758Z" fill="white"/>
<path d="M13.7421 38.6926C13.7421 38.6926 10.9411 38.7542 10.7778 39.9908C10.6144 41.2272 12.5032 42.3376 19.4051 42.6728C26.3102 43.0189 31.1473 41.1011 31.1473 41.1011L28.0357 39.5079C28.0357 39.5079 26.0603 39.854 23.0192 40.1999C19.9811 40.5459 13.7419 39.9263 13.4922 39.4461C13.2428 38.9634 13.7421 38.6926 13.7421 38.6926Z" fill="white"/>
<path d="M18.2558 47.5034C33.0359 47.4927 39.541 45.2289 40.6038 44.266C41.6665 43.3005 40.2643 42.5468 40.2643 42.5468C40.2643 42.5468 40.7636 43.0297 40.1139 43.5741C39.4512 44.1293 33.4488 45.5027 23.8323 45.9102C14.2285 46.3286 3.78922 45.1565 3.46251 44.1293C3.13618 43.0913 8.80225 42.2653 8.80225 42.2653C8.1523 42.3376 0.261251 42.4743 0.0115845 44.266C-0.237696 46.0577 3.4627 47.5034 18.2558 47.5034Z" fill="white"/>
<path d="M34.8512 48.3295C28.3591 49.421 8.63947 48.7291 8.63947 48.7291C8.63947 48.7291 21.4572 51.2852 36.087 49.1474C43.0784 48.1201 43.4787 45.2906 43.4787 45.2906C43.4787 45.2906 41.34 47.2192 34.8512 48.3295Z" fill="white"/>
</svg>
