<svg width="100" height="100" viewBox="0 0 100 100" fill="none" xmlns="http://www.w3.org/2000/svg">
<g filter="url(#filter0_d_250_5)">
<path d="M11.9211 21.1935C11.7343 15.8903 15.9134 11 21.5622 11H79.4449C85.0937 11 89.2728 15.8903 89.086 21.1935C88.9066 26.2878 89.1396 32.8868 90.8193 38.2675C92.5044 43.6648 95.346 47.0763 100 47.5147V52.4853C95.346 52.9237 92.5044 56.3352 90.8193 61.7325C89.1396 67.1132 88.9066 73.7122 89.086 78.8067C89.2728 84.1097 85.0937 89 79.4449 89H21.5622C15.9134 89 11.7343 84.1097 11.9213 78.8067C12.1006 73.7122 11.8676 67.1132 10.1877 61.7325C8.50273 56.3352 5.65416 52.9237 1 52.4853V47.5147C5.65397 47.0763 8.50273 43.6648 10.1877 38.2675C11.8676 32.8868 12.1006 26.2878 11.9211 21.1935Z" fill="url(#paint0_linear_250_5)"/>
<path d="M52.6469 70.7344C61.7922 70.7344 67.3031 66.3072 67.3031 59.0048C67.3031 53.485 63.371 49.4888 57.5323 48.8562V48.6262C61.822 47.9362 65.1882 43.9976 65.1882 39.599C65.1882 33.3317 60.1836 29.2491 52.5575 29.2491H35.3988V70.7344H52.6469ZM42.0717 34.5103H50.949C55.7748 34.5103 58.5153 36.6377 58.5153 40.4901C58.5153 44.6014 55.328 46.9012 49.5489 46.9012H42.0717V34.5103ZM42.0717 65.4734V51.8175H50.8892C57.2045 51.8175 60.4814 54.1174 60.4814 58.6024C60.4814 63.0872 57.2941 65.4734 51.2765 65.4734H42.0717Z" fill="url(#paint1_linear_250_5)"/>
<path d="M11.9211 21.1935L11.4214 21.2111L11.4214 21.2111L11.9211 21.1935ZM89.086 21.1935L89.5857 21.2111L89.5857 21.2111L89.086 21.1935ZM90.8193 38.2675L90.342 38.4165L90.342 38.4165L90.8193 38.2675ZM100 47.5147H100.5V47.0596L100.047 47.0169L100 47.5147ZM100 52.4853L100.047 52.9831L100.5 52.9404V52.4853H100ZM90.8193 61.7325L90.342 61.5835L90.342 61.5835L90.8193 61.7325ZM89.086 78.8067L88.5863 78.8243L88.5863 78.8243L89.086 78.8067ZM11.9213 78.8067L12.421 78.8243L12.421 78.8242L11.9213 78.8067ZM10.1877 61.7325L9.71038 61.8815L9.71038 61.8815L10.1877 61.7325ZM1 52.4853H0.5V52.9404L0.953113 52.9831L1 52.4853ZM1 47.5147L0.953111 47.0169L0.5 47.0596V47.5147H1ZM10.1877 38.2675L9.71038 38.1185L9.71038 38.1185L10.1877 38.2675ZM57.5323 48.8562H57.0323V49.3049L57.4784 49.3533L57.5323 48.8562ZM57.5323 48.6262L57.4529 48.1326L57.0323 48.2002V48.6262H57.5323ZM35.3988 29.2491V28.7491H34.8988V29.2491H35.3988ZM35.3988 70.7344H34.8988V71.2344H35.3988V70.7344ZM42.0717 34.5103V34.0103H41.5717V34.5103H42.0717ZM42.0717 46.9012H41.5717V47.4012H42.0717V46.9012ZM42.0717 65.4734H41.5717V65.9734H42.0717V65.4734ZM42.0717 51.8175V51.3175H41.5717V51.8175H42.0717ZM12.4208 21.1759C12.2431 16.1302 16.2212 11.5 21.5622 11.5V10.5C15.6057 10.5 11.2256 15.6504 11.4214 21.2111L12.4208 21.1759ZM21.5622 11.5H79.4449V10.5H21.5622V11.5ZM79.4449 11.5C84.786 11.5 88.764 16.1302 88.5863 21.1759L89.5857 21.2111C89.7816 15.6504 85.4015 10.5 79.4449 10.5V11.5ZM88.5863 21.1759C88.4063 26.2872 88.6368 32.9541 90.342 38.4165L91.2966 38.1185C89.6424 32.8196 89.4069 26.2885 89.5857 21.2111L88.5863 21.1759ZM90.342 38.4165C92.0532 43.8973 95.0052 47.5464 99.9531 48.0125L100.047 47.0169C95.6869 46.6062 92.9556 43.4323 91.2966 38.1185L90.342 38.4165ZM99.5 47.5147V52.4853H100.5V47.5147H99.5ZM99.9531 51.9875C95.0052 52.4536 92.0532 56.1027 90.342 61.5835L91.2966 61.8815C92.9556 56.5677 95.6869 53.3938 100.047 52.9831L99.9531 51.9875ZM90.342 61.5835C88.6368 67.0459 88.4063 73.7128 88.5863 78.8243L89.5857 78.7891C89.4069 73.7115 89.6424 67.1804 91.2966 61.8815L90.342 61.5835ZM88.5863 78.8243C88.764 83.8698 84.786 88.5 79.4449 88.5V89.5C85.4015 89.5 89.7816 84.3496 89.5857 78.7891L88.5863 78.8243ZM79.4449 88.5H21.5622V89.5H79.4449V88.5ZM21.5622 88.5C16.2212 88.5 12.2431 83.8698 12.421 78.8243L11.4216 78.789C11.2256 84.3496 15.6057 89.5 21.5622 89.5V88.5ZM12.421 78.8242C12.6009 73.7128 12.3704 67.0459 10.6649 61.5835L9.71038 61.8815C11.3648 67.1804 11.6003 73.7115 11.4216 78.7891L12.421 78.8242ZM10.6649 61.5835C8.95379 56.1022 5.99465 52.4535 1.04689 51.9875L0.953113 52.9831C5.31367 53.3938 8.05167 56.5682 9.71038 61.8815L10.6649 61.5835ZM1.5 52.4853V47.5147H0.5V52.4853H1.5ZM1.04689 48.0125C5.99445 47.5465 8.95378 43.8978 10.6649 38.4165L9.71038 38.1185C8.05168 43.4318 5.31348 46.6062 0.953111 47.0169L1.04689 48.0125ZM10.6649 38.4165C12.3704 32.9541 12.6009 26.2872 12.4208 21.1759L11.4214 21.2111C11.6003 26.2885 11.3648 32.8196 9.71038 38.1185L10.6649 38.4165ZM52.6469 71.2344C57.2936 71.2344 61.0809 70.1102 63.7171 67.9982C66.367 65.8752 67.8031 62.7937 67.8031 59.0048H66.8031C66.8031 62.5183 65.4837 65.3015 63.0919 67.2178C60.6863 69.145 57.1455 70.2344 52.6469 70.2344V71.2344ZM67.8031 59.0048C67.8031 53.1963 63.644 49.0154 57.5861 48.3591L57.4784 49.3533C63.0979 49.9621 66.8031 53.7737 66.8031 59.0048H67.8031ZM58.0323 48.8562V48.6262H57.0323V48.8562H58.0323ZM57.6117 49.1199C62.1447 48.3908 65.6882 44.2421 65.6882 39.599H64.6882C64.6882 43.7531 61.4992 47.4817 57.4529 48.1326L57.6117 49.1199ZM65.6882 39.599C65.6882 36.3205 64.3736 33.5891 62.0493 31.6869C59.7346 29.7925 56.4556 28.7491 52.5575 28.7491V29.7491C56.2856 29.7491 59.3219 30.747 61.416 32.4608C63.5004 34.1667 64.6882 36.6102 64.6882 39.599H65.6882ZM52.5575 28.7491H35.3988V29.7491H52.5575V28.7491ZM34.8988 29.2491V70.7344H35.8988V29.2491H34.8988ZM35.3988 71.2344H52.6469V70.2344H35.3988V71.2344ZM42.0717 35.0103H50.949V34.0103H42.0717V35.0103ZM50.949 35.0103C53.2979 35.0103 55.064 35.5293 56.2327 36.4486C57.3833 37.3536 58.0153 38.6938 58.0153 40.4901H59.0153C59.0153 38.434 58.2771 36.7844 56.851 35.6626C55.443 34.5551 53.426 34.0103 50.949 34.0103V35.0103ZM58.0153 40.4901C58.0153 42.3988 57.285 43.844 55.908 44.831C54.5066 45.8354 52.3834 46.4012 49.5489 46.4012V47.4012C52.4934 47.4012 54.8535 46.8171 56.4905 45.6438C58.152 44.453 59.0153 42.6927 59.0153 40.4901H58.0153ZM49.5489 46.4012H42.0717V47.4012H49.5489V46.4012ZM42.5717 46.9012V34.5103H41.5717V46.9012H42.5717ZM42.5717 65.4734V51.8175H41.5717V65.4734H42.5717ZM42.0717 52.3175H50.8892V51.3175H42.0717V52.3175ZM50.8892 52.3175C54.0003 52.3175 56.2777 52.8865 57.7652 53.9365C59.2227 54.9655 59.9814 56.4985 59.9814 58.6024H60.9814C60.9814 56.2213 60.1016 54.3618 58.3419 53.1196C56.6122 51.8985 54.0935 51.3175 50.8892 51.3175V52.3175ZM59.9814 58.6024C59.9814 60.713 59.2396 62.2709 57.8363 63.3191C56.4087 64.3856 54.2314 64.9734 51.2765 64.9734V65.9734C54.3392 65.9734 56.7643 65.3682 58.4348 64.1203C60.1296 62.8542 60.9814 60.9766 60.9814 58.6024H59.9814ZM51.2765 64.9734H42.0717V65.9734H51.2765V64.9734Z" fill="white"/>
</g>
<defs>
<filter id="filter0_d_250_5" x="-15.5" y="-1.5" width="132" height="111" filterUnits="userSpaceOnUse" color-interpolation-filters="sRGB">
<feFlood flood-opacity="0" result="BackgroundImageFix"/>
<feColorMatrix in="SourceAlpha" type="matrix" values="0 0 0 0 0 0 0 0 0 0 0 0 0 0 0 0 0 0 127 0" result="hardAlpha"/>
<feOffset dy="4"/>
<feGaussianBlur stdDeviation="8"/>
<feColorMatrix type="matrix" values="0 0 0 0 0 0 0 0 0 0 0 0 0 0 0 0 0 0 0.15 0"/>
<feBlend mode="normal" in2="BackgroundImageFix" result="effect1_dropShadow_250_5"/>
<feBlend mode="normal" in="SourceGraphic" in2="effect1_dropShadow_250_5" result="shape"/>
</filter>
<linearGradient id="paint0_linear_250_5" x1="15.7106" y1="13.0643" x2="101.459" y2="81.9083" gradientUnits="userSpaceOnUse">
<stop stop-color="white"/>
<stop offset="1" stop-color="#B4B4B4"/>
</linearGradient>
<linearGradient id="paint1_linear_250_5" x1="38.4166" y1="31.9797" x2="57.4301" y2="64.5029" gradientUnits="userSpaceOnUse">
<stop/>
<stop offset="1" stop-color="#6C6C6C"/>
</linearGradient>
</defs>
</svg>
