<svg width="43" height="60" viewBox="0 0 43 60" fill="none" xmlns="http://www.w3.org/2000/svg">
<path d="M43 11.7914L39.0826 55.1741L21.4737 60L3.91326 55.1809L0 11.7914H43Z" fill="#484848"/>
<path d="M35.7289 52.4116L39.0765 15.3391H21.5V56.3113L35.7289 52.4116Z" fill="#797979"/>
<path d="M8.97107 31.4317L9.45354 36.7532H21.5V31.4317H8.97107Z" fill="#EBEBEB"/>
<path d="M21.5 20.6607H21.4814H8.00161L8.49096 25.9823H21.5V20.6607Z" fill="#EBEBEB"/>
<path d="M21.5 50.7889V45.2523L21.4764 45.2585L15.4812 43.6582L15.0979 39.414H9.69407L10.4482 47.7696L21.4752 50.7957L21.5 50.7889Z" fill="#EBEBEB"/>
<path d="M10.1198 0H16.6397V2.69531H12.8463V5.39062H16.6397V8.08594H10.1198V0Z" fill="white"/>
<path d="M17.9437 0H24.4636V2.34375H20.6702V2.8125H24.4636V8.20312H17.9437V5.74219H21.7371V5.27344H17.9437V0Z" fill="white"/>
<path d="M25.7676 0H32.2875V2.34375H28.4941V2.8125H32.2875V8.20312H25.7676V5.74219H29.561V5.27344H25.7676V0Z" fill="white"/>
<path d="M28.1101 36.7532L27.4853 43.6548L21.4814 45.2568V50.7932L32.5171 47.7696L33.8631 32.8607L33.9944 31.4317L34.9663 20.6607H21.4814V25.9823H29.0668L28.577 31.4317H21.4814V36.7532H28.1101Z" fill="white"/>
</svg>
