<svg width="100" height="100" viewBox="0 0 100 100" fill="none" xmlns="http://www.w3.org/2000/svg">
<path d="M90.9376 5.25783C89.537 8.61592 87.7438 11.7964 85.5954 14.7328C80.9054 10.0232 75.3259 6.29293 69.1813 3.75887C63.0368 1.2248 56.4498 -0.0624796 49.8033 -0.0281392C43.1568 0.00620119 36.5835 1.36148 30.4655 3.9589C24.3474 6.55632 18.8068 10.3441 14.1657 15.1019C9.52454 19.8597 5.87556 25.4927 3.43085 31.6733C0.986153 37.854 -0.205484 44.459 -0.074774 51.1042C0.0559361 57.7495 1.50639 64.3025 4.19224 70.3823C6.8781 76.462 10.7458 81.9471 15.5704 86.5188L17.4235 88.1547C24.4952 94.1134 33.0774 97.9996 42.2207 99.3835C51.3639 100.767 60.7118 99.595 69.2301 95.9961C77.7484 92.3971 85.1051 86.5118 90.4863 78.9914C95.8675 71.4709 99.0634 62.6084 99.7204 53.3844C101.088 40.6188 97.3391 24.4625 90.9391 5.25939L90.9376 5.25783ZM22.7032 86.8094C22.1696 87.4687 21.4524 87.955 20.6424 88.2066C19.8323 88.4583 18.9659 88.464 18.1526 88.223C17.3393 87.9821 16.6157 87.5054 16.0735 86.8531C15.5312 86.2008 15.1946 85.4024 15.1063 84.5588C15.0179 83.7152 15.1817 82.8643 15.5771 82.1139C15.9724 81.3634 16.5815 80.7471 17.3272 80.3428C18.0729 79.9386 18.9217 79.7646 19.7663 79.843C20.6109 79.9213 21.4133 80.2484 22.072 80.7828C22.9542 81.4987 23.5162 82.5355 23.6346 83.6655C23.753 84.7955 23.418 85.9262 22.7032 86.8094ZM90.7313 71.7938C78.3563 88.2781 51.9345 82.7156 34.9938 83.5156C34.9938 83.5156 31.9907 83.6922 28.9673 84.1875C28.9673 84.1875 30.1079 83.7031 31.5657 83.1516C43.4626 79.011 49.086 78.2141 56.3126 74.4953C69.9188 67.5781 83.3782 52.4297 86.1751 36.6828C80.9985 51.8313 65.2798 64.8578 50.972 70.1485C41.1657 73.7625 23.4501 77.2828 23.4501 77.2828L22.736 76.9C10.6829 71.0406 10.311 44.936 32.2313 36.5172C41.8298 32.8203 51.0126 34.85 61.3782 32.3766C72.447 29.7469 85.2532 21.4547 90.4641 10.6328C96.2923 27.9453 103.314 55.0422 90.7235 71.8047L90.7313 71.7938Z" fill="white"/>
</svg>
