<svg width="17" height="15" viewBox="0 0 17 15" fill="none" xmlns="http://www.w3.org/2000/svg">
<path d="M13.3571 9.0625V12.1875C13.3571 12.9622 13.0899 13.6247 12.5555 14.1748C12.0211 14.7249 11.3776 15 10.625 15H2.73214C1.97954 15 1.33603 14.7249 0.801618 14.1748C0.267206 13.6247 0 12.9622 0 12.1875V4.0625C0 3.28776 0.267206 2.62533 0.801618 2.0752C1.33603 1.52507 1.97954 1.25 2.73214 1.25H9.41071C9.49926 1.25 9.57199 1.2793 9.62891 1.33789C9.68583 1.39648 9.71429 1.47135 9.71429 1.5625V2.1875C9.71429 2.27865 9.68583 2.35352 9.62891 2.41211C9.57199 2.4707 9.49926 2.5 9.41071 2.5H2.73214C2.31473 2.5 1.9574 2.65299 1.66016 2.95898C1.36291 3.26497 1.21429 3.63281 1.21429 4.0625V12.1875C1.21429 12.6172 1.36291 12.985 1.66016 13.291C1.9574 13.597 2.31473 13.75 2.73214 13.75H10.625C11.0424 13.75 11.3997 13.597 11.697 13.291C11.9942 12.985 12.1429 12.6172 12.1429 12.1875V9.0625C12.1429 8.97135 12.1713 8.89648 12.2282 8.83789C12.2852 8.7793 12.3579 8.75 12.4464 8.75H13.0536C13.1421 8.75 13.2148 8.7793 13.2718 8.83789C13.3287 8.89648 13.3571 8.97135 13.3571 9.0625ZM17 0.625V5.625C17 5.79427 16.9399 5.94076 16.8198 6.06445C16.6996 6.18815 16.5573 6.25 16.3929 6.25C16.2284 6.25 16.0861 6.18815 15.966 6.06445L14.2963 4.3457L8.11105 10.7129C8.0478 10.778 7.97507 10.8105 7.89286 10.8105C7.81064 10.8105 7.73791 10.778 7.67466 10.7129L6.59319 9.59961C6.52995 9.53451 6.49833 9.45964 6.49833 9.375C6.49833 9.29037 6.52995 9.21549 6.59319 9.15039L12.7785 2.7832L11.1088 1.06445C10.9887 0.940755 10.9286 0.794271 10.9286 0.625C10.9286 0.455729 10.9887 0.309245 11.1088 0.185547C11.229 0.061849 11.3713 0 11.5357 0H16.3929C16.5573 0 16.6996 0.061849 16.8198 0.185547C16.9399 0.309245 17 0.455729 17 0.625Z" fill="#676767"/>
</svg>
