<svg width="3000" height="3000" viewBox="0 0 3000 3000" fill="none" xmlns="http://www.w3.org/2000/svg">
<path d="M2221.28 328L1442.56 818V1667.95V1733.07L1499.67 1769L1500 1769.21L2111.54 2154.01L2221.28 2223.07L3000 1733.07V818L2221.28 328ZM2833.15 849.997L2221.28 1235.01L1609.41 849.997L2221.28 464.984L2833.15 849.997ZM1558.56 954.987L2163.28 1335.5V2049.17V2049.59L1558.56 1669.08V1668.65V954.987ZM2279.28 2049.59V1335.5L2884 954.987V1669.08L2279.28 2049.59Z" fill="black"/>
<path d="M1441.44 954.987L836.72 1335.5V2049.17L1441.44 1668.66V954.987Z" fill="#3D0066"/>
<path d="M2163.28 1335.5L1558.56 954.987V1668.65L2163.28 2049.17V1335.5Z" fill="#FFDF3C"/>
<path fill-rule="evenodd" clip-rule="evenodd" d="M0 818L778.719 328L1557.44 818V1667.95L1558.56 1668.65L2163.28 2049.17L2278.72 2121.8V2187.06L2162.72 2258.79L1558 2639.3L1500 2672.83L1442 2639.3L837.282 2258.79L779.11 2222.82L888.464 2154.01L1500 2538.81L2111.54 2154.01L2111.87 2153.8L1500.33 1769L1500 1769.21L888.464 2154.01L888.134 2153.8L1499.67 1769L1442.56 1733.07V1667.95L1441.44 1668.66V954.987L836.72 1335.5V2049.17L721.281 2121.8V2186.92L0 1733.07V818ZM733.839 2194.82L779.11 2222.82L778.719 2223.07L733.839 2194.82ZM733.839 2194.82L721.281 2186.92V2187.06L733.839 2194.82ZM836.72 2049.17V2049.59L1441.44 1669.08V1668.66L836.72 2049.17ZM778.719 1235.01L1390.59 849.997L778.719 464.984L166.853 849.997L778.719 1235.01ZM720.718 1335.5L116.002 954.987V1669.08L720.718 2049.59V1335.5Z" fill="black"/>
<path d="M1441.44 1669.08L836.72 2049.59V2049.17L721.281 2121.8V2186.92L733.839 2194.82L779.11 2222.82L888.464 2154.01L888.134 2153.8L1499.67 1769L1442.56 1733.07V1667.95L1441.44 1668.66V1669.08Z" fill="black"/>
<path d="M1500 2538.81L2111.54 2154.01L1500 1769.21L888.464 2154.01L1500 2538.81Z" fill="black"/>
<path d="M116.002 954.987L720.718 1335.5V2049.59L116.002 1669.08V954.987Z" fill="#5C0099"/>
<path d="M1390.59 849.997L778.719 1235.01L166.853 849.997L778.719 464.984L1390.59 849.997Z" fill="#510087"/>
<path d="M2833.15 849.997L2221.28 1235.01L1609.41 849.997L2221.28 464.984L2833.15 849.997Z" fill="#FFD500"/>
<path d="M2279.28 2049.59V1335.5L2884 954.987V1669.08L2279.28 2049.59Z" fill="#FDC500"/>
</svg>
