<svg width="50" height="50" viewBox="0 0 50 50" fill="none" xmlns="http://www.w3.org/2000/svg">
<path d="M37.0213 2L24.0427 11.8216V28.8581V30.1633L24.9945 30.8836L25 30.8877L35.1923 38.6008L37.0213 39.9848L50 30.1633V11.8216L37.0213 2ZM47.2192 12.463L37.0213 20.1802L26.8235 12.463L37.0213 4.74572L47.2192 12.463ZM25.976 14.5674L36.0547 22.1944V36.4993V36.5078L25.976 28.8806V28.8722V14.5674ZM37.988 36.5078V22.1944L48.0667 14.5674V28.8808L37.988 36.5078Z" fill="black"/>
<path d="M24.024 14.5674L13.9453 22.1944V36.4993L24.024 28.8722V14.5674Z" fill="#3D0066"/>
<path d="M36.0547 22.1944L25.976 14.5674V28.8722L36.0547 36.4993V22.1944Z" fill="#FFDF3C"/>
<path fill-rule="evenodd" clip-rule="evenodd" d="M0 11.8216L12.9787 2L25.9573 11.8216V28.8581L25.976 28.8722L36.0547 36.4993L37.9787 37.9552V39.2633L36.0453 40.7011L25.9667 48.3281L25 49L24.0333 48.3279L13.9547 40.7011L12.9852 39.9799L14.8077 38.6008L25 46.3139L35.1923 38.6008L35.1978 38.5966L25.0055 30.8836L25 30.8877L14.8077 38.6008L14.8022 38.5966L24.9945 30.8836L24.0427 30.1633V28.8581L24.024 28.8722V14.5674L13.9453 22.1944V36.4993L12.0213 37.9552V39.2605L0 30.1633V11.8216ZM12.2306 39.4188L12.9852 39.9799L12.9787 39.9848L12.2306 39.4188ZM12.2306 39.4188L12.0213 39.2605V39.2633L12.2306 39.4188ZM13.9453 36.4993V36.5078L24.024 28.8808V28.8722L13.9453 36.4993ZM12.9787 20.1802L23.1765 12.463L12.9787 4.74572L2.78088 12.463L12.9787 20.1802ZM12.012 22.1944L1.93337 14.5674V28.8806L12.012 36.5078V22.1944Z" fill="black"/>
<path d="M24.024 28.8808L13.9453 36.5078V36.4993L12.0214 37.9552V39.2605L12.2307 39.4188L12.9852 39.98L14.8077 38.6008L14.8022 38.5966L24.9945 30.8836L24.0427 30.1633V28.8581L24.024 28.8722V28.8808Z" fill="black"/>
<path d="M25 46.3138L35.1923 38.6008L25 30.8877L14.8077 38.6008L25 46.3138Z" fill="black"/>
<path d="M1.93338 14.5674L12.012 22.1944V36.5078L1.93338 28.8806V14.5674Z" fill="#5C0099"/>
<path d="M23.1765 12.463L12.9787 20.1802L2.78088 12.463L12.9787 4.74573L23.1765 12.463Z" fill="#510087"/>
<path d="M47.2192 12.463L37.0213 20.1802L26.8235 12.463L37.0213 4.74573L47.2192 12.463Z" fill="#FFD500"/>
<path d="M37.988 36.5078V22.1944L48.0667 14.5674V28.8808L37.988 36.5078Z" fill="#FDC500"/>
</svg>
