<svg width="100" height="25" viewBox="0 0 100 25" fill="none" xmlns="http://www.w3.org/2000/svg">
<path d="M100 0H0V25H100V0Z" fill="#005CAA"/>
<path fill-rule="evenodd" clip-rule="evenodd" d="M24.6112 8.87379C25.8295 4.64164 22.2956 3.35228 18.579 3.35228C14.813 3.35228 10.8219 4.49591 9.71637 8.65493C9.30471 10.5521 9.84915 12.1573 11.4997 12.9358C15.0496 14.6142 18.8535 14.1033 18.334 16.487C18.0801 17.6545 16.4841 18.2385 15.3324 18.2385C13.5363 18.2385 12.4891 17.3381 12.8713 15.6841H7.88307C6.91864 20.4515 10.3525 21.6477 14.543 21.6477C18.7079 21.6477 22.8317 19.8924 23.6384 16.195C24.6695 11.452 20.3462 11.16 17.4901 10.4064C16.2429 10.0656 14.738 9.65229 15.0169 8.36292C15.208 7.48746 16.3635 6.75772 17.5107 6.75772C18.359 6.75772 18.9657 6.95221 19.3107 7.31735C19.6807 7.68194 19.7929 8.19281 19.6229 8.87379H24.6112ZM39.0404 21.2788L39.7848 17.8733H31.0549L31.8655 14.1521H39.897L40.637 10.7466H32.6055L33.3949 7.12232H42.1253L42.8692 3.71742H29.1505L25.3223 21.2788H39.0404ZM41.8592 21.2788H46.3486L49.2797 7.82767H49.3291L52.5096 21.2788H59.4184L63.2472 3.71742H58.7579L55.914 16.7546L55.8557 16.8034L52.6718 3.71742H45.6875L41.8592 21.2788ZM66.2528 21.2788L68.1733 17.849H75.4815L75.9304 21.2788H81.5675L78.2876 3.71742H72.2016L61.2645 21.2788H66.2528ZM70.1855 14.4435L74.2221 7.1467H74.2971L74.9993 14.4435H70.1855ZM88.4519 21.2788L92.2807 3.71742H87.2919L83.4636 21.2788H88.4519Z" fill="white"/>
<path fill-rule="evenodd" clip-rule="evenodd" d="M0 12.2393H5.24011V12.7613H0V12.2393Z" fill="white"/>
<path fill-rule="evenodd" clip-rule="evenodd" d="M0 8.01202H5.24011V8.53403H0V8.01202Z" fill="white"/>
<path fill-rule="evenodd" clip-rule="evenodd" d="M0 3.78531H5.24011V4.30732H0V3.78531Z" fill="white"/>
<path fill-rule="evenodd" clip-rule="evenodd" d="M0 16.466H5.24011V16.988H0V16.466Z" fill="white"/>
<path fill-rule="evenodd" clip-rule="evenodd" d="M0 20.6927H5.24011V21.2147H0V20.6927Z" fill="white"/>
<path fill-rule="evenodd" clip-rule="evenodd" d="M94.7599 12.2393H100V12.7613H94.7599V12.2393Z" fill="white"/>
<path fill-rule="evenodd" clip-rule="evenodd" d="M94.7599 8.01202H100V8.53403H94.7599V8.01202Z" fill="white"/>
<path fill-rule="evenodd" clip-rule="evenodd" d="M94.7599 3.78531H100V4.30732H94.7599V3.78531Z" fill="white"/>
<path fill-rule="evenodd" clip-rule="evenodd" d="M94.7599 16.466H100V16.988H94.7599V16.466Z" fill="white"/>
<path fill-rule="evenodd" clip-rule="evenodd" d="M94.7599 20.6927H100V21.2147H94.7599V20.6927Z" fill="white"/>
</svg>
